<svg viewBox="0 0 18 18" fill="none" xmlns="http://www.w3.org/2000/svg">
  <path
    d="M9 18C13.9706 18 18 13.9706 18 9C18 4.02944 13.9706 0 9 0C4.02944 0 0 4.02944 0 9C0 13.9706 4.02944 18 9 18Z"
    fill="#F3BA2F"
  />
  <path
    d="M6.81525 8.10225L9 5.9175L11.1859 8.10337L12.4571 6.83212L9 3.375L5.544 6.831L6.81525 8.10225ZM3.375 9L4.64625 7.72875L5.9175 9L4.64625 10.2712L3.375 9ZM6.81525 9.89775L9 12.0825L11.1859 9.89662L12.4571 11.1673L9 14.625L5.544 11.169L5.54231 11.1673L6.81525 9.89775ZM12.0825 9L13.3537 7.72875L14.625 9L13.3537 10.2712L12.0825 9ZM10.2892 8.99887H10.2904V9L9 10.2904L7.71131 9.00225L7.70906 9L7.71131 8.99831L7.93687 8.77219L8.04656 8.6625L9 7.70962L10.2898 8.99944L10.2892 8.99887Z"
    fill="white"
  />
</svg>
